<?xml version="1.0" encoding="UTF-8" standalone="no"?>
<svg
   viewBox="0 0 512 512"
   version="1.1"
   id="svg1"
   sodipodi:docname="signal.svg"
   width="512"
   height="512"
   inkscape:version="1.4.2 (ebf0e940d0, 2025-05-08)"
   xmlns:inkscape="http://www.inkscape.org/namespaces/inkscape"
   xmlns:sodipodi="http://sodipodi.sourceforge.net/DTD/sodipodi-0.dtd"
   xmlns="http://www.w3.org/2000/svg"
   xmlns:svg="http://www.w3.org/2000/svg">
  <defs
     id="defs1" />
  <sodipodi:namedview
     id="namedview1"
     pagecolor="#ffffff"
     bordercolor="#000000"
     borderopacity="0.25"
     inkscape:showpageshadow="2"
     inkscape:pageopacity="0.0"
     inkscape:pagecheckerboard="0"
     inkscape:deskcolor="#d1d1d1"
     inkscape:zoom="1"
     inkscape:cx="255.5"
     inkscape:cy="256"
     inkscape:window-width="2560"
     inkscape:window-height="1371"
     inkscape:window-x="0"
     inkscape:window-y="0"
     inkscape:window-maximized="1"
     inkscape:current-layer="svg1" />
  <path
     fill="currentColor"
     d="m 256,0 c 13.3,0 26.3,1 39.1,3 l -3.7,23.7 C 279.9,24.9 268,24 256,24 c -12,0 -23.9,0.9 -35.4,2.7 L 216.9,3 C 229.7,1 242.7,0 256,0 Z m 60.8,7.3 -5.7,23.3 c 23.4,5.7 45.4,14.9 65.4,27.1 L 389,37.2 C 366.9,23.8 342.6,13.6 316.8,7.3 Z m 90.5,42.2 -14.2,19.3 c 19.1,14 36,30.9 50.1,50.1 l 19.4,-14.2 C 447,83.6 428.4,65 407.3,49.5 Z m 67.5,73.6 -20.5,12.5 c 12.2,20 21.4,42 27.1,65.4 l 23.3,-5.7 c -6.3,-25.8 -16.5,-50.1 -29.9,-72.2 z m 34.2,93.8 -23.7,3.7 c 1.8,11.5 2.7,23.4 2.7,35.4 0,12 -0.9,23.9 -2.7,35.4 l 23.7,3.7 c 1.9,-12.7 3,-25.8 3,-39.1 0,-13.3 -1,-26.3 -3,-39.1 z m -54.7,159.6 c 12.2,-20 21.4,-42 27.1,-65.4 l 23.3,5.7 c -6.3,25.8 -16.5,50.1 -29.9,72.2 z m -11.1,16.6 19.4,14.2 c -15.5,21.1 -34.1,39.8 -55.2,55.2 l -14.2,-19.4 c 19.1,-14 36,-30.9 50.1,-50.1 z m -66.7,61.2 12.5,20.5 c -22.1,13.4 -46.4,23.6 -72.2,29.9 l -5.7,-23.3 c 23.4,-5.7 45.4,-14.9 65.4,-27.1 z m -85.1,31 3.7,23.7 c -12.7,1.9 -25.8,3 -39.1,3 -13.3,0 -26.3,-1 -39.1,-3 l 3.7,-23.7 c 11.5,1.8 23.4,2.7 35.4,2.7 12,0 23.9,-0.9 35.4,-2.7 z m -90.5,-3.9 -5.7,23.3 C 175.8,500 157.3,493.1 139.9,484.2 l -24.3,5.7 -5.5,-23.4 32.8,-7.7 7.8,4 c 15.7,8 32.5,14.3 50.1,18.6 z M 90,471.3 l 5.5,23.4 -41.6,9.7 C 26,510.8 1.2,486 7.6,458.2 l 9.7,-41.6 23.4,5.4 -9.7,41.7 c -2.4,10.4 6.9,19.7 17.3,17.3 z M 45.5,401.8 22.1,396.3 27.8,372 C 18.9,354.7 12,336.1 7.3,316.7 L 30.6,311 c 4.3,17.6 10.6,34.4 18.6,50.1 l 4,7.8 -7.7,32.8 z M 26.7,291.4 3,295.1 C 1,282.3 0,269.3 0,256 0,242.7 1,229.7 3,216.9 l 23.7,3.7 C 24.9,232.1 24,244 24,256 c 0,12 0.9,23.9 2.7,35.4 z M 30.6,200.9 7.3,195.2 C 13.6,169.4 23.8,145.1 37.2,123 l 20.5,12.5 c -12.2,20 -21.4,42 -27.1,65.4 z M 68.9,118.8 49.5,104.7 C 65,83.6 83.6,65 104.7,49.5 l 14.2,19.4 C 99.8,82.9 82.9,99.8 68.8,119 Z M 135.6,57.6 123.1,37.2 C 145.2,23.8 169.5,13.6 195.3,7.3 l 5.7,23.3 c -23.4,5.7 -45.4,14.9 -65.4,27.1 z M 464,256 c 0,114.9 -93.1,208 -208,208 -36.4,0 -70.7,-9.4 -100.5,-25.8 -2.9,-1.6 -6.2,-2.1 -9.4,-1.4 l -92.5,21.6 21.6,-92.5 c 0.7,-3.2 0.2,-6.5 -1.4,-9.4 C 57.4,326.7 48,292.4 48,256 48,141.1 141.1,48 256,48 c 114.9,0 208,93.1 208,208 z"
     id="path1" />
</svg>
